<?xml version="1.0" encoding="UTF-8"?>
<!DOCTYPE svg PUBLIC "-//W3C//DTD SVG 1.1//EN" "http://www.w3.org/Graphics/SVG/1.1/DTD/svg11.dtd">
<svg xmlns="http://www.w3.org/2000/svg" version="1.1" width="1024px" height="1024px" style="shape-rendering:geometricPrecision; text-rendering:geometricPrecision; image-rendering:optimizeQuality; fill-rule:evenodd; clip-rule:evenodd" xmlns:xlink="http://www.w3.org/1999/xlink">
<g><path style="opacity:0.796" fill="#040d14" d="M 505.5,153.5 C 514.241,152.563 522.575,153.896 530.5,157.5C 546.115,171.283 548.948,187.283 539,205.5C 533.85,210.826 528.017,215.159 521.5,218.5C 520.997,226.113 519.997,233.613 518.5,241C 519.899,246.578 520.566,252.244 520.5,258C 520.279,264.581 519.612,271.081 518.5,277.5C 514.5,277.5 510.5,277.5 506.5,277.5C 506.667,257.831 506.5,238.164 506,218.5C 484.611,210.391 476.945,195.057 483,172.5C 487.689,162.629 495.189,156.296 505.5,153.5 Z M 507.5,172.5 C 515.301,170.91 520.801,173.577 524,180.5C 527.021,193.482 521.854,199.316 508.5,198C 499.342,193.522 497.175,186.689 502,177.5C 503.73,175.598 505.563,173.931 507.5,172.5 Z"/></g>
<g><path style="opacity:1" fill="#192930" d="M 507.5,155.5 C 524.808,154.319 535.975,161.985 541,178.5C 544.036,192.901 539.536,204.068 527.5,212C 524.142,214.203 520.642,216.037 517,217.5C 516.5,236.83 516.333,256.164 516.5,275.5C 513.881,275.768 511.381,275.435 509,274.5C 508.667,255.167 508.333,235.833 508,216.5C 489.396,210.642 481.396,197.975 484,178.5C 487.813,166.518 495.647,158.851 507.5,155.5 Z M 507.5,172.5 C 505.563,173.931 503.73,175.598 502,177.5C 497.175,186.689 499.342,193.522 508.5,198C 521.854,199.316 527.021,193.482 524,180.5C 520.801,173.577 515.301,170.91 507.5,172.5 Z"/></g>
<g><path style="opacity:0.49" fill="#02070d" d="M 444.5,185.5 C 451.285,184.951 455.618,187.951 457.5,194.5C 456.38,199.839 453.214,202.839 448,203.5C 441.271,201.718 438.938,197.385 441,190.5C 441.997,188.677 443.164,187.01 444.5,185.5 Z"/></g>
<g><path style="opacity:0.588" fill="#040a0f" d="M 574.5,186.5 C 584.675,184.518 589.175,188.518 588,198.5C 587.654,200.848 586.487,202.681 584.5,204C 573.926,207.077 569.092,203.244 570,192.5C 570.599,189.746 572.099,187.746 574.5,186.5 Z"/></g>
<g><path style="opacity:1" fill="#1c292f" d="M 445.5,188.5 C 450.42,187.784 453.42,189.784 454.5,194.5C 453.655,199.844 450.655,201.677 445.5,200C 441.555,196.169 441.555,192.336 445.5,188.5 Z"/></g>
<g><path style="opacity:1" fill="#1e292e" d="M 576.5,188.5 C 584.567,188.381 587.401,192.048 585,199.5C 575.744,204.922 571.744,202.255 573,191.5C 574.145,190.364 575.312,189.364 576.5,188.5 Z"/></g>
<g><path style="opacity:0.502" fill="#060e15" d="M 509.5,169.5 C 524.711,170.872 530.211,178.872 526,193.5C 519.663,202.29 511.83,203.79 502.5,198C 495.243,190.575 494.743,182.741 501,174.5C 503.682,172.415 506.516,170.748 509.5,169.5 Z M 507.5,172.5 C 505.563,173.931 503.73,175.598 502,177.5C 497.175,186.689 499.342,193.522 508.5,198C 521.854,199.316 527.021,193.482 524,180.5C 520.801,173.577 515.301,170.91 507.5,172.5 Z"/></g>
<g><path style="opacity:1" fill="#17262d" d="M 618.5,261.5 C 619.167,260.167 619.833,258.833 620.5,257.5C 620.918,256.778 621.584,256.278 622.5,256C 608.595,239.355 609.262,223.355 624.5,208C 646.128,197.208 661.962,202.708 672,224.5C 673.263,252.237 660.097,265.071 632.5,263C 620.926,282.008 608.759,300.508 596,318.5C 594.333,317.167 592.667,315.833 591,314.5C 590.333,313.167 590.333,311.833 591,310.5C 601.333,293.347 611.833,276.347 622.5,259.5C 622.333,259.167 622.167,258.833 622,258.5C 621.241,260.063 620.074,261.063 618.5,261.5 Z M 638.5,218.5 C 642.702,218.384 646.702,219.217 650.5,221C 657.354,228.966 657.021,236.633 649.5,244C 640.877,248.055 634.377,245.888 630,237.5C 627.996,228.85 630.83,222.517 638.5,218.5 Z"/></g>
<g><path style="opacity:0.59" fill="#02080f" d="M 376.5,200.5 C 385.981,199.415 394.981,200.915 403.5,205C 420.031,222.216 420.698,240.049 405.5,258.5C 408.495,263.685 411.329,269.018 414,274.5C 422.396,285.607 430.062,297.274 437,309.5C 437.667,311.167 437.667,312.833 437,314.5C 434.927,319.282 431.427,321.449 426.5,321C 422.267,315.677 418.767,309.843 416,303.5C 407.367,291.221 399.2,278.721 391.5,266C 367.69,267.756 354.357,256.756 351.5,233C 351.547,215.486 359.881,204.653 376.5,200.5 Z M 380.5,218.5 C 388.277,217.342 393.444,220.342 396,227.5C 397.427,243.413 390.594,248.913 375.5,244C 369.43,237.34 368.93,230.173 374,222.5C 376.013,220.752 378.18,219.418 380.5,218.5 Z"/></g>
<g><path style="opacity:1" fill="#18282f" d="M 377.5,202.5 C 399.29,200.461 411.29,210.295 413.5,232C 413.226,236.599 412.392,241.099 411,245.5C 408.327,249.664 405.493,253.664 402.5,257.5C 403.33,259.828 404.163,262.162 405,264.5C 414.919,279.339 424.586,294.339 434,309.5C 434.667,311.167 434.667,312.833 434,314.5C 432.333,316.167 430.667,317.833 429,319.5C 417.417,302.003 406.084,284.336 395,266.5C 394.167,265.667 393.333,264.833 392.5,264C 362.78,263.61 350.613,248.777 356,219.5C 360.738,210.578 367.905,204.911 377.5,202.5 Z M 380.5,218.5 C 378.18,219.418 376.013,220.752 374,222.5C 368.93,230.173 369.43,237.34 375.5,244C 390.594,248.913 397.427,243.413 396,227.5C 393.444,220.342 388.277,217.342 380.5,218.5 Z"/></g>
<g><path style="opacity:0.502" fill="#050f15" d="M 378.5,216.5 C 395.293,215.459 401.793,223.125 398,239.5C 393.857,247.321 387.357,250.487 378.5,249C 366.316,241.728 364.316,232.228 372.5,220.5C 374.29,218.684 376.29,217.351 378.5,216.5 Z M 380.5,218.5 C 378.18,219.418 376.013,220.752 374,222.5C 368.93,230.173 369.43,237.34 375.5,244C 390.594,248.913 397.427,243.413 396,227.5C 393.444,220.342 388.277,217.342 380.5,218.5 Z"/></g>
<g><path style="opacity:0.227" fill="#081116" d="M 449.5,225.5 C 466.945,225 473.445,233.334 469,250.5C 463.803,258.575 456.637,260.742 447.5,257C 440.397,252.358 437.564,245.858 439,237.5C 440.861,235.112 442.194,232.446 443,229.5C 444.792,227.372 446.958,226.039 449.5,225.5 Z"/></g>
<g><path style="opacity:1" fill="#232e34" d="M 451.5,227.5 C 465.165,228.018 470.332,235.018 467,248.5C 461.523,257.384 454.356,258.884 445.5,253C 440.339,246.028 440.173,238.861 445,231.5C 447.013,229.752 449.18,228.418 451.5,227.5 Z"/></g>
<g><path style="opacity:0.533" fill="#050e12" d="M 567.5,225.5 C 570.85,225.335 574.183,225.502 577.5,226C 587.744,231.396 590.911,239.563 587,250.5C 576.954,262.476 566.954,262.476 557,250.5C 553.45,238.957 556.95,230.624 567.5,225.5 Z"/></g>
<g><path style="opacity:1" fill="#202b31" d="M 568.5,227.5 C 582.105,228.261 587.605,235.261 585,248.5C 579.553,256.815 572.387,258.648 563.5,254C 558.346,248.656 557.18,242.489 560,235.5C 562.074,231.923 564.907,229.256 568.5,227.5 Z"/></g>
<g><path style="opacity:1" fill="#0e161a" d="M 696.5,267.5 C 708.252,266.427 711.586,271.261 706.5,282C 701.605,284.394 697.105,283.894 693,280.5C 690.363,274.867 691.529,270.534 696.5,267.5 Z"/></g>
<g><path style="opacity:0.6" fill="#071015" d="M 322.5,267.5 C 333.093,266.115 336.593,270.448 333,280.5C 325.667,285.721 320.833,283.887 318.5,275C 319.702,272.373 321.035,269.873 322.5,267.5 Z"/></g>
<g><path style="opacity:0.435" fill="#051017" d="M 656.5,499.5 C 655.833,498.833 655.167,498.167 654.5,497.5C 659.895,481.195 663.895,464.529 666.5,447.5C 667.529,440.214 668.362,432.88 669,425.5C 669.667,404.5 669.667,383.5 669,362.5C 667.457,360.622 665.624,359.122 663.5,358C 623.248,344.977 584.914,327.811 548.5,306.5C 538.644,300.315 528.811,293.981 519,287.5C 515.545,286.45 512.045,286.283 508.5,287C 486.998,299.919 465.331,312.586 443.5,325C 426.359,333.535 409.025,341.368 391.5,348.5C 380.064,351.631 369.231,356.298 359,362.5C 358.012,365.424 357.346,368.424 357,371.5C 356.216,398.897 356.883,426.231 359,453.5C 358.5,450 358,446.5 357.5,443C 357.392,441.319 356.725,440.152 355.5,439.5C 354.394,415.517 354.228,391.517 355,367.5C 355.059,364.178 356.226,361.344 358.5,359C 382.567,349.129 406.567,338.962 430.5,328.5C 435.38,324.803 440.88,322.136 447,320.5C 467.475,307.681 488.308,295.514 509.5,284C 513.975,283.533 518.309,284.199 522.5,286C 536.861,295.845 551.528,305.179 566.5,314C 581.623,321.061 596.623,328.395 611.5,336C 629.482,342.661 647.482,349.328 665.5,356C 668.219,357.597 670.386,359.763 672,362.5C 674.794,399.219 672.461,435.552 665,471.5C 662.046,480.857 659.213,490.19 656.5,499.5 Z M 506.5,390.5 C 515.298,389.434 522.464,392.434 528,399.5C 533.449,412.945 529.615,422.445 516.5,428C 511.106,429.033 506.106,428.033 501.5,425C 499.333,422.167 497.167,419.333 495,416.5C 493.212,411.802 493.212,407.136 495,402.5C 498.364,397.971 502.197,393.971 506.5,390.5 Z"/></g>
<g><path style="opacity:1" fill="#17262d" d="M 314.5,318.5 C 315.267,322.415 315.767,326.415 316,330.5C 317.302,331.085 318.469,331.751 319.5,332.5C 317.856,332.714 316.356,332.38 315,331.5C 314.667,328.167 314.333,324.833 314,321.5C 313.207,325.423 313.374,329.256 314.5,333C 327.465,338.764 340.131,345.098 352.5,352C 349.93,354.067 347.93,356.567 346.5,359.5C 334.363,353.68 322.196,348.014 310,342.5C 307.712,344.374 305.879,346.707 304.5,349.5C 299.877,352.658 294.877,355.158 289.5,357C 288.177,357.816 287.511,358.983 287.5,360.5C 286.817,362.176 285.483,362.843 283.5,362.5C 283.822,358.561 282.489,357.728 279.5,360C 281.282,362.243 281.782,364.743 281,367.5C 279.981,365.498 279.148,363.498 278.5,361.5C 278.579,360.07 278.246,358.736 277.5,357.5C 254.3,348.096 248.133,332.096 259,309.5C 271.602,295.925 285.769,293.925 301.5,303.5C 307.088,307.932 310.922,313.598 313,320.5C 313.278,319.584 313.778,318.918 314.5,318.5 Z M 291.5,338.5 C 288.074,340.274 284.407,341.274 280.5,341.5C 270.846,337.52 267.679,330.52 271,320.5C 280.123,310.852 288.456,311.519 296,322.5C 297.555,328.793 296.055,334.126 291.5,338.5 Z"/></g>
<g><path style="opacity:0.541" fill="#02090f" d="M 618.5,261.5 C 620.074,261.063 621.241,260.063 622,258.5C 622.167,258.833 622.333,259.167 622.5,259.5C 611.833,276.347 601.333,293.347 591,310.5C 590.333,311.833 590.333,313.167 591,314.5C 592.667,315.833 594.333,317.167 596,318.5C 608.759,300.508 620.926,282.008 632.5,263C 660.097,265.071 673.263,252.237 672,224.5C 661.962,202.708 646.128,197.208 624.5,208C 609.262,223.355 608.595,239.355 622.5,256C 621.584,256.278 620.918,256.778 620.5,257.5C 610.246,245.794 607.746,232.461 613,217.5C 621.923,203.292 634.756,197.792 651.5,201C 663.035,204.535 670.535,212.035 674,223.5C 676.087,252.578 662.587,266.912 633.5,266.5C 622.864,283.634 612.031,300.634 601,317.5C 599.323,318.901 597.656,320.235 596,321.5C 593.928,318.793 591.261,316.793 588,315.5C 587.333,313.833 587.333,312.167 588,310.5C 597.673,293.812 607.84,277.479 618.5,261.5 Z M 638.5,218.5 C 630.83,222.517 627.996,228.85 630,237.5C 634.377,245.888 640.877,248.055 649.5,244C 657.021,236.633 657.354,228.966 650.5,221C 646.702,219.217 642.702,218.384 638.5,218.5 Z"/></g>
<g><path style="opacity:0.881" fill="#040d13" d="M 637.5,216.5 C 651.774,215.608 658.608,222.275 658,236.5C 652.604,247.947 644.104,251.113 632.5,246C 625.333,237.85 624.833,229.35 631,220.5C 633.013,218.752 635.18,217.418 637.5,216.5 Z M 638.5,218.5 C 630.83,222.517 627.996,228.85 630,237.5C 634.377,245.888 640.877,248.055 649.5,244C 657.021,236.633 657.354,228.966 650.5,221C 646.702,219.217 642.702,218.384 638.5,218.5 Z"/></g>
<g><path style="opacity:0.566" fill="#02090f" d="M 291.5,338.5 C 296.055,334.126 297.555,328.793 296,322.5C 288.456,311.519 280.123,310.852 271,320.5C 267.679,330.52 270.846,337.52 280.5,341.5C 281.681,342.397 283.681,342.897 286.5,343C 277.263,344.801 271.096,341.301 268,332.5C 266.198,316.968 273.032,310.135 288.5,312C 301.503,320.024 302.837,329.69 292.5,341C 290.956,342.187 289.289,342.52 287.5,342C 288.833,341.333 290.167,340.667 291.5,340C 292.738,339.31 292.738,338.81 291.5,338.5 Z M 291.5,338.5 C 288.074,340.274 284.407,341.274 280.5,341.5C 270.846,337.52 267.679,330.52 271,320.5C 280.123,310.852 288.456,311.519 296,322.5C 297.555,328.793 296.055,334.126 291.5,338.5 Z"/></g>
<g><path style="opacity:0.392" fill="#030a10" d="M 353.5,286.5 C 370.74,288.628 376.24,297.961 370,314.5C 358.823,324.665 349.156,323.332 341,310.5C 339.108,302.903 340.941,296.403 346.5,291C 348.993,289.581 351.326,288.081 353.5,286.5 Z"/></g>
<g><path style="opacity:1" fill="#1e2b32" d="M 352.5,289.5 C 366.842,289.667 372.342,296.667 369,310.5C 364,318.878 357.167,320.712 348.5,316C 341.129,309.38 340.629,302.214 347,294.5C 348.812,292.7 350.645,291.033 352.5,289.5 Z"/></g>
<g><path style="opacity:1" fill="#1c2d36" d="M 548.5,306.5 C 548.096,307.756 547.429,308.923 546.5,310C 547.233,311.766 547.567,313.599 547.5,315.5C 548.833,315.5 550.167,315.5 551.5,315.5C 551.5,316.833 551.5,318.167 551.5,319.5C 549.019,319.677 547.186,318.677 546,316.5C 545.001,320.237 543.668,320.237 542,316.5C 541.581,317.672 540.915,318.672 540,319.5C 536.501,319.716 533.001,319.05 529.5,317.5C 524.19,314.844 519.19,311.677 514.5,308C 513.167,307.333 511.833,307.333 510.5,308C 478.211,329.146 444.211,347.146 408.5,362C 400.596,364.721 392.596,367.221 384.5,369.5C 378.686,368.993 378.353,367.827 383.5,366C 384.833,365.333 384.833,364.667 383.5,364C 384.5,363.667 385.5,363.333 386.5,363C 385.294,361.982 385.627,361.482 387.5,361.5C 388.741,362.037 389.908,362.704 391,363.5C 391.5,363.333 392,363.167 392.5,363C 391.549,362.282 391.383,361.449 392,360.5C 393.191,362.847 395.024,363.68 397.5,363C 396.483,361.951 396.316,360.784 397,359.5C 397.333,359.833 397.667,360.167 398,360.5C 398.221,357.057 399.221,356.724 401,359.5C 403.732,356.681 404.065,353.681 402,350.5C 400.984,351.634 400.317,351.301 400,349.5C 397.493,350.395 394.66,350.062 391.5,348.5C 409.025,341.368 426.359,333.535 443.5,325C 465.331,312.586 486.998,299.919 508.5,287C 512.045,286.283 515.545,286.45 519,287.5C 528.811,293.981 538.644,300.315 548.5,306.5 Z"/></g>
<g><path style="opacity:0.269" fill="#02070d" d="M 661.5,288.5 C 680.416,286.006 687.583,294.006 683,312.5C 676.219,321.256 668.052,322.756 658.5,317C 652.401,311.257 650.901,304.423 654,296.5C 656.028,293.308 658.528,290.641 661.5,288.5 Z"/></g>
<g><path style="opacity:1" fill="#1a262c" d="M 664.5,290.5 C 675.513,288.863 681.513,293.697 682.5,305C 681.423,312.578 677.09,317.078 669.5,318.5C 656.444,315.988 652.277,308.655 657,296.5C 659.134,293.847 661.634,291.847 664.5,290.5 Z"/></g>
<g><path style="opacity:1" fill="#13222a" d="M 548.5,306.5 C 584.914,327.811 623.248,344.977 663.5,358C 665.624,359.122 667.457,360.622 669,362.5C 669.667,383.5 669.667,404.5 669,425.5C 668.362,432.88 667.529,440.214 666.5,447.5C 664.327,446.834 663.993,445.667 665.5,444C 662.924,440.266 661.924,436.1 662.5,431.5C 660.167,431.5 657.833,431.5 655.5,431.5C 655.5,434.167 655.5,436.833 655.5,439.5C 652.5,439.5 649.5,439.5 646.5,439.5C 646.657,438.127 646.49,436.793 646,435.5C 645.722,436.416 645.222,437.082 644.5,437.5C 644.86,429.423 645.526,421.423 646.5,413.5C 647.309,415.292 647.809,417.292 648,419.5C 649.724,403.962 649.891,388.462 648.5,373C 606.141,359.815 566.475,341.315 529.5,317.5C 533.001,319.05 536.501,319.716 540,319.5C 540.915,318.672 541.581,317.672 542,316.5C 543.668,320.237 545.001,320.237 546,316.5C 547.186,318.677 549.019,319.677 551.5,319.5C 551.5,318.167 551.5,316.833 551.5,315.5C 550.167,315.5 548.833,315.5 547.5,315.5C 547.567,313.599 547.233,311.766 546.5,310C 547.429,308.923 548.096,307.756 548.5,306.5 Z"/></g>
<g><path style="opacity:0.355" fill="#030b10" d="M 319.5,332.5 C 331.117,337.822 342.783,343.156 354.5,348.5C 355.833,350.5 355.833,352.5 354.5,354.5C 351.306,356.223 349.639,358.889 349.5,362.5C 348.127,362.657 346.793,362.49 345.5,362C 334.213,356.107 322.713,350.607 311,345.5C 309.196,348.248 307.029,350.748 304.5,353C 300.298,355.455 295.965,357.621 291.5,359.5C 290.872,382.503 290.539,405.503 290.5,428.5C 291.015,430.225 291.682,431.892 292.5,433.5C 293.901,434.521 295.235,435.521 296.5,436.5C 295.778,436.918 295.278,437.584 295,438.5C 293.172,436.919 291.172,435.585 289,434.5C 288.832,409.663 288.332,384.997 287.5,360.5C 287.511,358.983 288.177,357.816 289.5,357C 294.877,355.158 299.877,352.658 304.5,349.5C 305.879,346.707 307.712,344.374 310,342.5C 322.196,348.014 334.363,353.68 346.5,359.5C 347.93,356.567 349.93,354.067 352.5,352C 340.131,345.098 327.465,338.764 314.5,333C 313.374,329.256 313.207,325.423 314,321.5C 314.333,324.833 314.667,328.167 315,331.5C 316.356,332.38 317.856,332.714 319.5,332.5 Z"/></g>
<g><path style="opacity:1" fill="#132129" d="M 749.5,534.5 C 747.621,535.341 745.621,535.675 743.5,535.5C 743.108,532.854 743.108,530.354 743.5,528C 742.584,527.626 741.75,527.126 741,526.5C 740.699,529.507 740.865,532.507 741.5,535.5C 739.901,535.768 738.568,535.434 737.5,534.5C 738.656,509.906 738.823,485.239 738,460.5C 735.715,458.093 733.549,455.593 731.5,453C 713.503,452.5 695.503,452.333 677.5,452.5C 677.5,449.5 677.5,446.5 677.5,443.5C 695.839,443.264 714.172,442.764 732.5,442C 733.428,438.236 735.761,436.07 739.5,435.5C 739.126,410.166 738.626,384.832 738,359.5C 733.774,356.634 729.274,354.134 724.5,352C 721.462,349.297 718.795,346.297 716.5,343C 715.833,342.833 715.167,342.667 714.5,342.5C 702.614,347.721 690.947,353.387 679.5,359.5C 677.512,356.872 675.512,354.205 673.5,351.5C 685.047,345.377 696.714,339.543 708.5,334C 706.321,334.284 704.321,334.117 702.5,333.5C 708.062,332.944 710.729,329.944 710.5,324.5C 711.302,325.952 711.802,327.618 712,329.5C 715.388,304.76 729.221,294.927 753.5,300C 755.833,301 758.167,302 760.5,303C 771.788,313.827 774.621,326.661 769,341.5C 766.925,345.579 764.092,349.079 760.5,352C 756.379,353.806 752.546,355.973 749,358.5C 748.333,384.167 748.333,409.833 749,435.5C 752.209,437.078 754.376,439.578 755.5,443C 762.5,443.667 769.5,443.667 776.5,443C 782.366,431.428 790.366,429.595 800.5,437.5C 807.001,447.998 805.001,456.498 794.5,463C 789.889,464.007 785.555,463.34 781.5,461C 779.5,458 777.5,455 775.5,452C 769.141,451.169 762.807,451.336 756.5,452.5C 755.167,455.833 752.833,458.167 749.5,459.5C 748.202,483.822 747.702,508.156 748,532.5C 748.717,533.044 749.217,533.711 749.5,534.5 Z M 737.5,314.5 C 748.571,312.922 754.571,317.589 755.5,328.5C 755.4,331.966 754.4,335.132 752.5,338C 745.234,343.037 738.401,342.537 732,336.5C 727.659,327.393 729.493,320.059 737.5,314.5 Z"/></g>
<g><path style="opacity:0.357" fill="#010b0f" d="M 738.5,311.5 C 755.509,312.499 761.343,321.166 756,337.5C 749.766,344.971 742.266,346.471 733.5,342C 722.894,329.644 724.561,319.477 738.5,311.5 Z M 737.5,314.5 C 729.493,320.059 727.659,327.393 732,336.5C 738.401,342.537 745.234,343.037 752.5,338C 754.4,335.132 755.4,331.966 755.5,328.5C 754.571,317.589 748.571,312.922 737.5,314.5 Z"/></g>
<g><path style="opacity:0.418" fill="#01070e" d="M 529.5,317.5 C 566.475,341.315 606.141,359.815 648.5,373C 649.891,388.462 649.724,403.962 648,419.5C 647.809,417.292 647.309,415.292 646.5,413.5C 646.832,400.483 646.499,387.483 645.5,374.5C 633.921,371.275 622.587,367.442 611.5,363C 577.047,348.109 544.047,330.609 512.5,310.5C 480.076,331.213 446.076,349.047 410.5,364C 400.306,367.787 389.972,371.287 379.5,374.5C 378.16,400.041 379.16,425.708 382.5,451.5C 381.698,452.952 381.198,454.618 381,456.5C 379.855,450.196 378.855,443.862 378,437.5C 376.714,415.52 376.214,393.52 376.5,371.5C 379.373,371.198 382.039,370.531 384.5,369.5C 392.596,367.221 400.596,364.721 408.5,362C 444.211,347.146 478.211,329.146 510.5,308C 511.833,307.333 513.167,307.333 514.5,308C 519.19,311.677 524.19,314.844 529.5,317.5 Z"/></g>
<g><path style="opacity:1" fill="#1a3641" d="M 521.5,364.5 C 520.993,365.859 519.993,366.859 518.5,367.5C 544.923,373.66 557.256,390.327 555.5,417.5C 554.21,418.058 553.377,419.058 553,420.5C 551.873,417.623 551.206,414.623 551,411.5C 550.581,415.852 549.914,416.185 549,412.5C 548.667,413.5 548.333,414.5 548,415.5C 547.667,413.167 547.333,410.833 547,408.5C 546.667,409.5 546.333,410.5 546,411.5C 545.333,410.167 544.667,410.167 544,411.5C 543.28,409.888 543.446,408.388 544.5,407C 542.939,406.682 541.772,405.849 541,404.5C 540.751,405.624 540.251,406.624 539.5,407.5C 538.575,406.359 537.741,406.359 537,407.5C 532.645,399.976 526.812,393.81 519.5,389C 506.87,386.27 497.703,390.77 492,402.5C 491.509,409.591 491.843,416.591 493,423.5C 492.667,422.833 492.333,422.167 492,421.5C 489.602,422.856 487.102,424.023 484.5,425C 484.833,425.333 485.167,425.667 485.5,426C 484.299,426.903 483.465,428.069 483,429.5C 482.333,426.833 481.667,426.833 481,429.5C 479.956,427.285 479.29,424.952 479,422.5C 478.464,424.869 477.297,426.869 475.5,428.5C 477.058,430.405 476.725,431.239 474.5,431C 464.831,408.982 469.165,390.316 487.5,375C 496.766,369.184 506.766,366.351 517.5,366.5C 512.318,365.713 507.318,365.38 502.5,365.5C 508.7,363.269 515.034,362.936 521.5,364.5 Z"/></g>
<g><path style="opacity:0.612" fill="#01080e" d="M 700.5,385.5 C 705.742,385.023 710.742,385.856 715.5,388C 723.062,396.055 723.396,404.388 716.5,413C 712.354,416.203 707.687,417.536 702.5,417C 691.191,411.565 688.358,403.065 694,391.5C 696.063,389.266 698.229,387.266 700.5,385.5 Z"/></g>
<g><path style="opacity:1" fill="#15242b" d="M 702.5,387.5 C 710.443,386.712 715.61,390.046 718,397.5C 718.626,411.872 712.126,416.705 698.5,412C 691.115,402.539 692.448,394.372 702.5,387.5 Z"/></g>
<g><path style="opacity:1" fill="#315e6c" d="M 427.5,400.5 C 427.631,401.239 427.464,401.906 427,402.5C 425.155,403.05 423.655,404.05 422.5,405.5C 422.373,407.516 423.039,409.516 424.5,411.5C 416.535,412.755 408.535,412.588 400.5,411C 397.89,407.87 397.89,404.704 400.5,401.5C 403.975,400.92 407.309,400.087 410.5,399C 416.36,398.32 422.026,398.82 427.5,400.5 Z"/></g>
<g><path style="opacity:1" fill="#2891a6" d="M 424.5,411.5 C 423.039,409.516 422.373,407.516 422.5,405.5C 423.655,404.05 425.155,403.05 427,402.5C 427.464,401.906 427.631,401.239 427.5,400.5C 433.306,398.776 439.306,398.276 445.5,399C 450.719,402.864 450.719,406.864 445.5,411C 438.548,412.511 431.548,412.678 424.5,411.5 Z"/></g>
<g><path style="opacity:0.624" fill="#050f15" d="M 316.5,385.5 C 326.83,383.076 333.664,386.743 337,396.5C 338.583,406.834 334.416,413.667 324.5,417C 321.953,417.66 319.453,417.493 317,416.5C 306.918,410.997 304.251,402.997 309,392.5C 311.396,389.933 313.896,387.6 316.5,385.5 Z"/></g>
<g><path style="opacity:1" fill="#1c2c34" d="M 318.5,387.5 C 322.747,387.178 326.747,388.011 330.5,390C 335.638,397.09 335.638,404.09 330.5,411C 323.1,416.403 316.6,415.57 311,408.5C 307.357,399.147 309.857,392.147 318.5,387.5 Z"/></g>
<g><path style="opacity:1" fill="#132229" d="M 391.5,348.5 C 394.66,350.062 397.493,350.395 400,349.5C 400.317,351.301 400.984,351.634 402,350.5C 404.065,353.681 403.732,356.681 401,359.5C 399.221,356.724 398.221,357.057 398,360.5C 397.667,360.167 397.333,359.833 397,359.5C 396.316,360.784 396.483,361.951 397.5,363C 395.024,363.68 393.191,362.847 392,360.5C 391.383,361.449 391.549,362.282 392.5,363C 392,363.167 391.5,363.333 391,363.5C 389.908,362.704 388.741,362.037 387.5,361.5C 385.627,361.482 385.294,361.982 386.5,363C 385.5,363.333 384.5,363.667 383.5,364C 384.833,364.667 384.833,365.333 383.5,366C 378.353,367.827 378.686,368.993 384.5,369.5C 382.039,370.531 379.373,371.198 376.5,371.5C 376.214,393.52 376.714,415.52 378,437.5C 378.855,443.862 379.855,450.196 381,456.5C 381.198,454.618 381.698,452.952 382.5,451.5C 382.691,454.983 383.357,458.316 384.5,461.5C 383.034,460.653 382.2,459.32 382,457.5C 381.333,459.5 381.333,461.5 382,463.5C 396.117,521.621 428.617,566.121 479.5,597C 483.5,599.333 487.5,601.667 491.5,604C 496.249,605.249 500.749,607.082 505,609.5C 509.022,611.274 513.188,611.774 517.5,611C 537.725,603.256 556.058,592.422 572.5,578.5C 573.301,580.042 573.634,581.708 573.5,583.5C 576.833,583.5 580.167,583.5 583.5,583.5C 583.5,586.167 583.5,588.833 583.5,591.5C 580.833,591.5 578.167,591.5 575.5,591.5C 575.663,593.857 575.497,596.19 575,598.5C 573.806,600.525 572.306,600.859 570.5,599.5C 567.537,601.442 565.871,604.108 565.5,607.5C 549.446,619.261 531.779,627.261 512.5,631.5C 509.833,631.333 507.167,631.167 504.5,631C 437.139,604.309 391.639,556.809 368,488.5C 365.116,477.181 362.449,465.847 360,454.5C 359.583,455.756 358.75,456.423 357.5,456.5C 357.079,450.798 356.412,445.131 355.5,439.5C 356.725,440.152 357.392,441.319 357.5,443C 358,446.5 358.5,450 359,453.5C 356.883,426.231 356.216,398.897 357,371.5C 357.346,368.424 358.012,365.424 359,362.5C 369.231,356.298 380.064,351.631 391.5,348.5 Z"/></g>
<g><path style="opacity:0.416" fill="#0c3f50" d="M 580.5,398.5 C 585.511,398.334 590.511,398.501 595.5,399C 596,399.5 596.5,400 597,400.5C 597.667,404.167 597.667,407.833 597,411.5C 590.53,412.818 584.03,412.818 577.5,411.5C 574.584,409.009 573.918,406.009 575.5,402.5C 577.419,401.388 579.086,400.054 580.5,398.5 Z"/></g>
<g><path style="opacity:0.384" fill="#05384a" d="M 612.5,398.5 C 617.846,397.854 622.846,398.688 627.5,401C 629.274,405.163 628.607,408.83 625.5,412C 620.5,412.667 615.5,412.667 610.5,412C 608.477,408.817 607.977,405.317 609,401.5C 610.518,400.837 611.685,399.837 612.5,398.5 Z"/></g>
<g><path style="opacity:1" fill="#135668" d="M 613.5,401.5 C 615.766,401.141 617.599,401.808 619,403.5C 619.667,400.833 620.333,400.833 621,403.5C 621.333,402.833 621.667,402.167 622,401.5C 623.011,402.337 624.178,402.67 625.5,402.5C 627.035,408.578 624.535,411.244 618,410.5C 611.537,411.21 609.37,408.543 611.5,402.5C 612.944,403.981 613.611,403.648 613.5,401.5 Z"/></g>
<g><path style="opacity:1" fill="#132730" d="M 502.5,365.5 C 507.318,365.38 512.318,365.713 517.5,366.5C 506.766,366.351 496.766,369.184 487.5,375C 469.165,390.316 464.831,408.982 474.5,431C 476.725,431.239 477.058,430.405 475.5,428.5C 477.297,426.869 478.464,424.869 479,422.5C 479.29,424.952 479.956,427.285 481,429.5C 481.667,426.833 482.333,426.833 483,429.5C 483.465,428.069 484.299,426.903 485.5,426C 485.167,425.667 484.833,425.333 484.5,425C 487.102,424.023 489.602,422.856 492,421.5C 492.333,422.167 492.667,422.833 493,423.5C 491.843,416.591 491.509,409.591 492,402.5C 497.703,390.77 506.87,386.27 519.5,389C 526.812,393.81 532.645,399.976 537,407.5C 537.741,406.359 538.575,406.359 539.5,407.5C 540.251,406.624 540.751,405.624 541,404.5C 541.772,405.849 542.939,406.682 544.5,407C 543.446,408.388 543.28,409.888 544,411.5C 544.667,410.167 545.333,410.167 546,411.5C 546.333,410.5 546.667,409.5 547,408.5C 547.333,410.833 547.667,413.167 548,415.5C 548.333,414.5 548.667,413.5 549,412.5C 549.914,416.185 550.581,415.852 551,411.5C 551.206,414.623 551.873,417.623 553,420.5C 553.377,419.058 554.21,418.058 555.5,417.5C 553.034,432.944 544.7,443.61 530.5,449.5C 524.323,447.687 517.99,447.02 511.5,447.5C 511.5,448.833 511.5,450.167 511.5,451.5C 509.801,451.34 508.134,451.506 506.5,452C 507.696,452.654 507.696,453.154 506.5,453.5C 504.631,451.016 502.964,451.016 501.5,453.5C 490.992,451.166 482.826,445.5 477,436.5C 477.109,437.769 476.942,438.769 476.5,439.5C 468.87,429.573 465.704,418.24 467,405.5C 469.838,384.163 481.671,370.83 502.5,365.5 Z M 506.5,390.5 C 502.197,393.971 498.364,397.971 495,402.5C 493.212,407.136 493.212,411.802 495,416.5C 497.167,419.333 499.333,422.167 501.5,425C 506.106,428.033 511.106,429.033 516.5,428C 529.615,422.445 533.449,412.945 528,399.5C 522.464,392.434 515.298,389.434 506.5,390.5 Z"/></g>
<g><path style="opacity:1" fill="#11323e" d="M 590.5,439.5 C 590.811,438.522 591.478,437.855 592.5,437.5C 599.334,441.057 604.001,439.224 606.5,432C 605.748,431.329 605.414,430.496 605.5,429.5C 612.142,428.243 618.809,428.243 625.5,429.5C 628.624,438.612 625.458,442.945 616,442.5C 608.836,441.956 601.67,441.456 594.5,441C 593.099,440.59 591.766,440.09 590.5,439.5 Z"/></g>
<g><path style="opacity:0.999" fill="#39636f" d="M 605.5,429.5 C 605.414,430.496 605.748,431.329 606.5,432C 604.001,439.224 599.334,441.057 592.5,437.5C 591.478,437.855 590.811,438.522 590.5,439.5C 588.621,438.659 586.621,438.325 584.5,438.5C 585.341,436.621 585.675,434.621 585.5,432.5C 588.067,431.327 590.733,430.161 593.5,429C 597.51,428.643 601.51,428.81 605.5,429.5 Z"/></g>
<g><path style="opacity:0.996" fill="#208fa2" d="M 402.5,429.5 C 411.173,429.334 419.84,429.5 428.5,430C 434.169,442.004 430.502,446.504 417.5,443.5C 412.418,443.581 407.418,443.081 402.5,442C 399.943,437.902 399.943,433.735 402.5,429.5 Z"/></g>
<g><path style="opacity:1" fill="#174555" d="M 443.5,429.5 C 447.967,429.133 452.3,429.633 456.5,431C 458.745,433.896 459.078,437.063 457.5,440.5C 452.966,443.047 448.3,443.547 443.5,442C 440.16,437.638 440.16,433.471 443.5,429.5 Z"/></g>
<g><path style="opacity:1" fill="#0f2a35" d="M 585.5,432.5 C 585.675,434.621 585.341,436.621 584.5,438.5C 582.22,439.64 579.886,440.807 577.5,442C 571.865,443.536 568.865,441.369 568.5,435.5C 569.038,429.137 572.372,426.971 578.5,429C 581.139,429.653 583.473,430.82 585.5,432.5 Z"/></g>
<g><path style="opacity:1" fill="#15242b" d="M 287.5,360.5 C 288.332,384.997 288.832,409.663 289,434.5C 291.172,435.585 293.172,436.919 295,438.5C 295.278,437.584 295.778,436.918 296.5,436.5C 297.391,437.261 298.058,438.261 298.5,439.5C 315.824,440.333 333.157,440.833 350.5,441C 352.276,443.815 353.276,446.981 353.5,450.5C 353.457,451.416 353.124,452.083 352.5,452.5C 351.698,451.048 351.198,449.382 351,447.5C 350.51,448.793 350.343,450.127 350.5,451.5C 333.163,451.333 315.83,451.5 298.5,452C 296.26,455.743 293.26,458.576 289.5,460.5C 285.821,460.276 282.154,459.942 278.5,459.5C 274.958,452.98 269.458,450.313 262,451.5C 259.167,451.667 256.333,451.833 253.5,452C 249.436,459.028 243.436,462.361 235.5,462C 228.513,459.193 225.18,454.027 225.5,446.5C 226.201,433.956 232.535,429.456 244.5,433C 248.026,435.026 250.693,437.859 252.5,441.5C 258.807,442.664 265.141,442.831 271.5,442C 273.086,438.993 275.253,436.493 278,434.5C 278.5,410.169 278.667,385.836 278.5,361.5C 279.148,363.498 279.981,365.498 281,367.5C 281.782,364.743 281.282,362.243 279.5,360C 282.489,357.728 283.822,358.561 283.5,362.5C 285.483,362.843 286.817,362.176 287.5,360.5 Z"/></g>
<g><path style="opacity:0.5" fill="#02070c" d="M 702.5,333.5 C 704.321,334.117 706.321,334.284 708.5,334C 696.714,339.543 685.047,345.377 673.5,351.5C 675.512,354.205 677.512,356.872 679.5,359.5C 690.947,353.387 702.614,347.721 714.5,342.5C 715.167,342.667 715.833,342.833 716.5,343C 718.795,346.297 721.462,349.297 724.5,352C 729.274,354.134 733.774,356.634 738,359.5C 738.626,384.832 739.126,410.166 739.5,435.5C 735.761,436.07 733.428,438.236 732.5,442C 714.172,442.764 695.839,443.264 677.5,443.5C 677.5,446.5 677.5,449.5 677.5,452.5C 695.503,452.333 713.503,452.5 731.5,453C 733.549,455.593 735.715,458.093 738,460.5C 738.823,485.239 738.656,509.906 737.5,534.5C 728.647,536.424 721.647,541.091 716.5,548.5C 716.93,547.288 716.93,545.955 716.5,544.5C 721.545,537.809 728.212,533.475 736.5,531.5C 736.667,508.498 736.5,485.498 736,462.5C 733.149,459.416 730.315,456.416 727.5,453.5C 709.88,454.486 692.214,454.82 674.5,454.5C 674.335,450.818 674.501,447.152 675,443.5C 675.674,442.422 676.674,441.755 678,441.5C 695.489,440.867 712.989,440.2 730.5,439.5C 731.781,436.553 733.781,434.219 736.5,432.5C 737.087,430.727 737.42,428.894 737.5,427C 736.716,405.179 736.216,383.346 736,361.5C 732.703,358.433 728.869,356.267 724.5,355C 721.777,351.042 718.277,347.875 714,345.5C 701.905,350.976 689.905,356.642 678,362.5C 674.502,358.184 671.669,353.517 669.5,348.5C 673.313,347.84 676.979,346.674 680.5,345C 688.018,341.409 695.351,337.576 702.5,333.5 Z"/></g>
<g><path style="opacity:0.439" fill="#01070c" d="M 714.5,546.5 C 714.12,547.133 713.787,547.8 713.5,548.5C 695.414,538.373 677.247,528.373 659,518.5C 656.293,520.977 654.959,523.977 655,527.5C 673.813,537.633 692.647,547.8 711.5,558C 712,558.5 712.5,559 713,559.5C 712.452,573.25 717.619,584.083 728.5,592C 743.906,598.251 757.073,595.085 768,582.5C 776.838,563.344 772.672,547.844 755.5,536C 753.655,534.872 751.655,534.372 749.5,534.5C 749.217,533.711 748.717,533.044 748,532.5C 747.702,508.156 748.202,483.822 749.5,459.5C 752.833,458.167 755.167,455.833 756.5,452.5C 762.807,451.336 769.141,451.169 775.5,452C 777.5,455 779.5,458 781.5,461C 785.555,463.34 789.889,464.007 794.5,463C 805.001,456.498 807.001,447.998 800.5,437.5C 790.366,429.595 782.366,431.428 776.5,443C 769.5,443.667 762.5,443.667 755.5,443C 754.376,439.578 752.209,437.078 749,435.5C 748.333,409.833 748.333,384.167 749,358.5C 752.546,355.973 756.379,353.806 760.5,352C 764.092,349.079 766.925,345.579 769,341.5C 774.621,326.661 771.788,313.827 760.5,303C 758.167,302 755.833,301 753.5,300C 729.221,294.927 715.388,304.76 712,329.5C 711.802,327.618 711.302,325.952 710.5,324.5C 711.26,319.377 712.76,314.377 715,309.5C 718.737,306.886 721.903,303.719 724.5,300C 731.699,297.163 739.032,295.497 746.5,295C 770.112,301.398 778.612,316.565 772,340.5C 771.069,342.459 770.236,344.459 769.5,346.5C 766.833,348.5 764.5,350.833 762.5,353.5C 758.619,355.357 754.786,357.357 751,359.5C 750.167,384.173 750.334,408.84 751.5,433.5C 754.448,435.277 756.448,437.777 757.5,441C 762.68,440.426 767.846,440.593 773,441.5C 773.873,441.265 774.707,440.931 775.5,440.5C 778.453,431.704 784.453,428.204 793.5,430C 801.991,432.846 806.325,438.846 806.5,448C 806.799,456.345 803.133,462.012 795.5,465C 785.272,467.102 777.938,463.435 773.5,454C 768.5,453.333 763.5,453.333 758.5,454C 757.366,457.633 755.033,460.133 751.5,461.5C 750.667,478.994 750,496.494 749.5,514C 749.557,519.873 750.057,525.707 751,531.5C 769.737,538.617 777.404,552.283 774,572.5C 770.351,586.146 761.517,594.312 747.5,597C 735.313,598.772 725.313,594.939 717.5,585.5C 713.279,577.6 710.779,569.267 710,560.5C 709.167,559.667 708.333,558.833 707.5,558C 689.674,548.376 671.674,539.043 653.5,530C 651.354,525.188 652.354,520.855 656.5,517C 658.167,516.333 659.833,516.333 661.5,517C 679.676,526.199 697.343,536.032 714.5,546.5 Z M 740.5,548.5 C 748.832,548.994 753.998,553.327 756,561.5C 757.235,574.545 751.401,580.045 738.5,578C 727.698,570.171 726.698,561.171 735.5,551C 737.315,550.243 738.981,549.41 740.5,548.5 Z"/></g>
<g><path style="opacity:0.999" fill="#1d4553" d="M 447.5,459.5 C 452.179,459.334 456.845,459.501 461.5,460C 465.124,462.161 466.291,465.328 465,469.5C 459.449,473.859 453.282,474.692 446.5,472C 446,471.5 445.5,471 445,470.5C 444.502,467.183 444.335,463.85 444.5,460.5C 445.791,460.737 446.791,460.404 447.5,459.5 Z"/></g>
<g><path style="opacity:1" fill="#0d788b" d="M 617.5,460.5 C 618.833,463.5 618.833,466.5 617.5,469.5C 616.732,468.737 616.232,467.737 616,466.5C 615.5,467.5 615,468.5 614.5,469.5C 611.973,470.214 609.473,470.88 607,471.5C 604.753,469.845 602.42,469.512 600,470.5C 599.333,467.833 598.667,467.833 598,470.5C 596.52,468.663 596.52,466.663 598,464.5C 598.333,465.167 598.667,465.833 599,466.5C 599.667,464.5 601,463.167 603,462.5C 606.746,462.981 610.913,462.981 615.5,462.5C 615.544,465.481 615.877,465.814 616.5,463.5C 616.182,462.353 615.516,461.519 614.5,461C 615.448,460.517 616.448,460.351 617.5,460.5 Z"/></g>
<g><path style="opacity:1" fill="#105667" d="M 617.5,460.5 C 616.448,460.351 615.448,460.517 614.5,461C 615.516,461.519 616.182,462.353 616.5,463.5C 615.877,465.814 615.544,465.481 615.5,462.5C 610.913,462.981 606.746,462.981 603,462.5C 601,463.167 599.667,464.5 599,466.5C 598.667,465.833 598.333,465.167 598,464.5C 596.52,466.663 596.52,468.663 598,470.5C 598.667,467.833 599.333,467.833 600,470.5C 602.42,469.512 604.753,469.845 607,471.5C 609.473,470.88 611.973,470.214 614.5,469.5C 615,468.5 615.5,467.5 616,466.5C 616.232,467.737 616.732,468.737 617.5,469.5C 616.547,471.61 614.881,472.777 612.5,473C 606.833,473.667 601.167,473.667 595.5,473C 592.146,472.145 590.48,469.978 590.5,466.5C 590.326,464.307 590.993,462.473 592.5,461C 598.664,460.472 604.831,459.972 611,459.5C 613.361,459.504 615.527,459.837 617.5,460.5 Z"/></g>
<g><path style="opacity:1" fill="#101f27" d="M 521.5,364.5 C 532.552,367.127 541.719,372.794 549,381.5C 557.577,393.471 560.243,406.804 557,421.5C 556.242,425.685 554.909,429.685 553,433.5C 550.82,435.863 549.153,438.53 548,441.5C 545.318,443.903 542.818,446.403 540.5,449C 537.386,450.983 534.053,452.483 530.5,453.5C 530.062,453.565 529.728,453.399 529.5,453C 531.5,452 533.5,451 535.5,450C 536.696,449.346 536.696,448.846 535.5,448.5C 531.798,450.758 527.798,452.091 523.5,452.5C 523.333,470.17 523.5,487.836 524,505.5C 524.5,506 525,506.5 525.5,507C 530.823,507.499 536.156,507.666 541.5,507.5C 541.666,511.846 541.499,516.179 541,520.5C 535.249,521.31 529.416,521.81 523.5,522C 524.737,522.232 525.737,522.732 526.5,523.5C 525.559,528.07 525.226,532.737 525.5,537.5C 531.176,537.334 536.843,537.501 542.5,538C 543.056,538.383 543.389,538.883 543.5,539.5C 537.225,538.582 530.892,538.249 524.5,538.5C 524.666,533.489 524.499,528.489 524,523.5C 523.501,528.823 523.334,534.156 523.5,539.5C 529.229,539.212 534.896,539.546 540.5,540.5C 541.494,545.456 541.827,550.456 541.5,555.5C 536.851,556.065 532.184,556.565 527.5,557C 524.249,558.577 521.249,560.577 518.5,563C 512.384,565.796 507.218,564.63 503,559.5C 501.52,524.228 501.02,488.895 501.5,453.5C 502.964,451.016 504.631,451.016 506.5,453.5C 507.696,453.154 507.696,452.654 506.5,452C 508.134,451.506 509.801,451.34 511.5,451.5C 511.5,450.167 511.5,448.833 511.5,447.5C 517.99,447.02 524.323,447.687 530.5,449.5C 544.7,443.61 553.034,432.944 555.5,417.5C 557.256,390.327 544.923,373.66 518.5,367.5C 519.993,366.859 520.993,365.859 521.5,364.5 Z"/></g>
<g><path style="opacity:0.207" fill="#030b11" d="M 530.5,453.5 C 529.122,454.234 527.622,454.901 526,455.5C 525.5,471.83 525.333,488.163 525.5,504.5C 530.511,504.334 535.511,504.501 540.5,505C 541.5,505.5 542.5,506 543.5,506.5C 544.662,511.467 544.829,516.467 544,521.5C 543.5,522 543,522.5 542.5,523C 537.177,523.499 531.844,523.666 526.5,523.5C 525.737,522.732 524.737,522.232 523.5,522C 529.416,521.81 535.249,521.31 541,520.5C 541.499,516.179 541.666,511.846 541.5,507.5C 536.156,507.666 530.823,507.499 525.5,507C 525,506.5 524.5,506 524,505.5C 523.5,487.836 523.333,470.17 523.5,452.5C 527.798,452.091 531.798,450.758 535.5,448.5C 536.696,448.846 536.696,449.346 535.5,450C 533.5,451 531.5,452 529.5,453C 529.728,453.399 530.062,453.565 530.5,453.5 Z"/></g>
<g><path style="opacity:0.694" fill="#1c3844" d="M 413.5,459.5 C 419.29,459.096 424.956,459.596 430.5,461C 434.81,470.876 431.477,474.709 420.5,472.5C 410.729,474.541 407.062,470.874 409.5,461.5C 411.026,461.006 412.359,460.339 413.5,459.5 Z"/></g>
<g><path style="opacity:0.588" fill="#0d3440" d="M 564.5,459.5 C 568.967,459.133 573.3,459.633 577.5,461C 581.041,469.708 578.208,473.541 569,472.5C 563.647,473.372 560.147,471.372 558.5,466.5C 559.367,463.044 561.367,460.711 564.5,459.5 Z"/></g>
<g><path style="opacity:0.613" fill="#02090f" d="M 337.5,490.5 C 337.665,493.518 337.498,496.518 337,499.5C 336.486,487.305 330.32,482.139 318.5,484C 310.316,489.862 308.816,497.028 314,505.5C 323.104,510.899 330.437,509.233 336,500.5C 336.278,501.416 336.778,502.082 337.5,502.5C 336.05,505.785 333.717,508.285 330.5,510C 312.038,512.549 305.538,505.049 311,487.5C 319.016,478.538 327.349,478.205 336,486.5C 336.791,487.745 337.291,489.078 337.5,490.5 Z"/></g>
<g><path style="opacity:0.561" fill="#01070c" d="M 700.5,480.5 C 705.215,480.351 709.549,481.518 713.5,484C 717.805,490.665 718.639,497.832 716,505.5C 712.422,508.861 708.256,511.195 703.5,512.5C 690.378,509.353 686.211,501.353 691,488.5C 693.362,484.755 696.528,482.089 700.5,480.5 Z"/></g>
<g><path style="opacity:1" fill="#17272f" d="M 337.5,490.5 C 338.791,494.399 338.791,498.399 337.5,502.5C 336.778,502.082 336.278,501.416 336,500.5C 330.437,509.233 323.104,510.899 314,505.5C 308.816,497.028 310.316,489.862 318.5,484C 330.32,482.139 336.486,487.305 337,499.5C 337.498,496.518 337.665,493.518 337.5,490.5 Z"/></g>
<g><path style="opacity:0.735" fill="#020b12" d="M 501.5,453.5 C 501.02,488.895 501.52,524.228 503,559.5C 507.218,564.63 512.384,565.796 518.5,563C 521.249,560.577 524.249,558.577 527.5,557C 532.184,556.565 536.851,556.065 541.5,555.5C 541.827,550.456 541.494,545.456 540.5,540.5C 534.896,539.546 529.229,539.212 523.5,539.5C 523.334,534.156 523.501,528.823 524,523.5C 524.499,528.489 524.666,533.489 524.5,538.5C 530.892,538.249 537.225,538.582 543.5,539.5C 549.177,554.239 544.177,560.739 528.5,559C 519.894,567.7 510.727,568.533 501,561.5C 499.927,557.916 499.26,554.25 499,550.5C 498.667,518.833 498.333,487.167 498,455.5C 493.652,454.076 489.485,452.243 485.5,450C 482.583,446.263 479.583,442.763 476.5,439.5C 476.942,438.769 477.109,437.769 477,436.5C 482.826,445.5 490.992,451.166 501.5,453.5 Z"/></g>
<g><path style="opacity:1" fill="#193642" d="M 560.5,490.5 C 566.346,489.183 572.346,489.183 578.5,490.5C 579.348,492.409 579.682,494.409 579.5,496.5C 578.778,496.082 578.278,495.416 578,494.5C 577.51,495.793 577.343,497.127 577.5,498.5C 572.489,498.666 567.489,498.499 562.5,498C 559.833,496 559.833,494 562.5,492C 564.833,491.833 567.167,491.667 569.5,491.5C 572.287,491.574 574.787,492.24 577,493.5C 577.483,492.552 577.649,491.552 577.5,490.5C 571.833,490.5 566.167,490.5 560.5,490.5 Z"/></g>
<g><path style="opacity:1" fill="#1c3945" d="M 436.5,500.5 C 436.663,498.143 436.497,495.81 436,493.5C 435.505,495.473 435.338,497.473 435.5,499.5C 429.824,499.666 424.157,499.499 418.5,499C 416.829,495.841 417.663,493.675 421,492.5C 426.074,491.562 430.907,491.229 435.5,491.5C 428.524,489.881 421.858,490.548 415.5,493.5C 415.944,491.887 416.944,490.72 418.5,490C 424.5,489.333 430.5,489.333 436.5,490C 437.82,493.601 437.82,497.101 436.5,500.5 Z"/></g>
<g><path style="opacity:0.607" fill="#0d1b23" d="M 592.5,489.5 C 597.844,489.334 603.177,489.501 608.5,490C 611.03,494.219 610.363,497.885 606.5,501C 601.167,501.667 595.833,501.667 590.5,501C 589.544,497.606 589.211,494.106 589.5,490.5C 590.791,490.737 591.791,490.404 592.5,489.5 Z"/></g>
<g><path style="opacity:1" fill="#16242b" d="M 699.5,483.5 C 707.235,482.278 712.401,485.278 715,492.5C 716.508,505.329 711.008,510.496 698.5,508C 691.292,502.958 689.792,496.458 694,488.5C 695.73,486.598 697.563,484.931 699.5,483.5 Z"/></g>
<g><path style="opacity:0.059" fill="#061823" d="M 436.5,500.5 C 431.396,502.121 426.063,502.621 420.5,502C 415.349,500.97 413.682,498.136 415.5,493.5C 421.858,490.548 428.524,489.881 435.5,491.5C 430.907,491.229 426.074,491.562 421,492.5C 417.663,493.675 416.829,495.841 418.5,499C 424.157,499.499 429.824,499.666 435.5,499.5C 435.338,497.473 435.505,495.473 436,493.5C 436.497,495.81 436.663,498.143 436.5,500.5 Z"/></g>
<g><path style="opacity:0.636" fill="#072432" d="M 453.5,488.5 C 458.267,488.191 462.934,488.691 467.5,490C 471.662,498.501 468.995,502.334 459.5,501.5C 456.076,501.518 452.743,501.018 449.5,500C 448.39,497.263 448.223,494.429 449,491.5C 450.409,490.219 451.909,489.219 453.5,488.5 Z"/></g>
<g><path style="opacity:1" fill="#174655" d="M 451.5,491.5 C 456.179,491.334 460.845,491.501 465.5,492C 466.833,494.333 466.833,496.667 465.5,499C 460.816,499.461 456.149,499.295 451.5,498.5C 451.5,496.167 451.5,493.833 451.5,491.5 Z"/></g>
<g><path style="opacity:0.786" fill="#071721" d="M 560.5,490.5 C 566.167,490.5 571.833,490.5 577.5,490.5C 577.649,491.552 577.483,492.552 577,493.5C 574.787,492.24 572.287,491.574 569.5,491.5C 567.167,491.667 564.833,491.833 562.5,492C 559.833,494 559.833,496 562.5,498C 567.489,498.499 572.489,498.666 577.5,498.5C 577.343,497.127 577.51,495.793 578,494.5C 578.278,495.416 578.778,496.082 579.5,496.5C 579.5,497.833 579.5,499.167 579.5,500.5C 572.381,501.805 565.381,501.305 558.5,499C 557.398,496.599 557.231,494.099 558,491.5C 558.671,490.748 559.504,490.414 560.5,490.5 Z"/></g>
<g><path style="opacity:1" fill="#101f26" d="M 666.5,447.5 C 663.895,464.529 659.895,481.195 654.5,497.5C 642.31,531.669 622.644,560.669 595.5,584.5C 585.83,592.66 575.83,600.327 565.5,607.5C 565.871,604.108 567.537,601.442 570.5,599.5C 572.306,600.859 573.806,600.525 575,598.5C 575.497,596.19 575.663,593.857 575.5,591.5C 578.167,591.5 580.833,591.5 583.5,591.5C 583.5,588.833 583.5,586.167 583.5,583.5C 580.167,583.5 576.833,583.5 573.5,583.5C 573.634,581.708 573.301,580.042 572.5,578.5C 587.547,566.285 600.714,552.285 612,536.5C 611.862,535.39 611.362,534.39 610.5,533.5C 629.772,504.467 641.106,472.467 644.5,437.5C 645.222,437.082 645.722,436.416 646,435.5C 646.49,436.793 646.657,438.127 646.5,439.5C 649.5,439.5 652.5,439.5 655.5,439.5C 655.5,436.833 655.5,434.167 655.5,431.5C 657.833,431.5 660.167,431.5 662.5,431.5C 661.924,436.1 662.924,440.266 665.5,444C 663.993,445.667 664.327,446.834 666.5,447.5 Z"/></g>
<g><path style="opacity:0.401" fill="#01050a" d="M 314.5,318.5 C 313.778,318.918 313.278,319.584 313,320.5C 310.922,313.598 307.088,307.932 301.5,303.5C 285.769,293.925 271.602,295.925 259,309.5C 248.133,332.096 254.3,348.096 277.5,357.5C 278.246,358.736 278.579,360.07 278.5,361.5C 278.667,385.836 278.5,410.169 278,434.5C 275.253,436.493 273.086,438.993 271.5,442C 265.141,442.831 258.807,442.664 252.5,441.5C 250.693,437.859 248.026,435.026 244.5,433C 232.535,429.456 226.201,433.956 225.5,446.5C 225.18,454.027 228.513,459.193 235.5,462C 243.436,462.361 249.436,459.028 253.5,452C 256.333,451.833 259.167,451.667 262,451.5C 269.458,450.313 274.958,452.98 278.5,459.5C 278.667,483.836 278.5,508.169 278,532.5C 253.146,542.939 247.146,559.939 260,583.5C 269.655,594.839 281.488,597.672 295.5,592C 308.288,584.598 314.455,573.431 314,558.5C 331.9,549.804 349.067,539.971 365.5,529C 368.523,529.094 370.523,527.761 371.5,525C 370.391,522.953 369.724,520.787 369.5,518.5C 351.612,527.446 333.945,536.946 316.5,547C 314.246,548.15 311.913,548.484 309.5,548C 304.369,540.945 297.703,536.112 289.5,533.5C 288.178,509.101 288.178,484.768 289.5,460.5C 293.26,458.576 296.26,455.743 298.5,452C 315.83,451.5 333.163,451.333 350.5,451.5C 350.343,450.127 350.51,448.793 351,447.5C 351.198,449.382 351.698,451.048 352.5,452.5C 335.297,453.78 317.964,454.28 300.5,454C 298.542,457.165 295.876,459.665 292.5,461.5C 291.782,466.182 291.116,470.849 290.5,475.5C 290.934,493.791 291.101,512.125 291,530.5C 292.945,531.863 295.112,532.697 297.5,533C 303.231,536.464 308.065,540.964 312,546.5C 330.36,535.151 349.36,524.817 369,515.5C 371.303,516.751 372.636,518.751 373,521.5C 373.667,523.833 373.667,526.167 373,528.5C 364.5,533 356,537.5 347.5,542C 342.096,545.691 336.762,549.358 331.5,553C 327.056,554.389 322.723,556.056 318.5,558C 317.299,558.903 316.465,560.069 316,561.5C 316.051,576.063 309.885,586.896 297.5,594C 270.293,601.761 254.626,591.761 250.5,564C 251.634,547.235 260.134,536.068 276,530.5C 276.667,507.167 276.667,483.833 276,460.5C 270.452,453.691 263.286,451.525 254.5,454C 252.433,459.065 248.767,462.399 243.5,464C 226.734,464.346 219.9,456.18 223,439.5C 229.518,427.996 238.351,425.829 249.5,433C 251.53,434.896 253.197,437.063 254.5,439.5C 259.467,440.662 264.467,440.829 269.5,440C 271.293,437.205 273.46,434.705 276,432.5C 276.303,409.629 276.47,386.796 276.5,364C 276.062,362.08 275.395,360.246 274.5,358.5C 253.324,349.801 246.491,334.468 254,312.5C 262.493,299.004 274.659,293.17 290.5,295C 299.976,298.125 307.476,303.959 313,312.5C 313.813,314.436 314.313,316.436 314.5,318.5 Z M 280.5,548.5 C 289.445,549.275 294.778,554.109 296.5,563C 295.886,567.588 294.219,571.754 291.5,575.5C 286.323,579.287 280.99,579.453 275.5,576C 266.202,564.788 267.869,555.622 280.5,548.5 Z"/></g>
<g><path style="opacity:1" fill="#14232a" d="M 714.5,546.5 C 715.5,546.167 716.167,545.5 716.5,544.5C 716.93,545.955 716.93,547.288 716.5,548.5C 721.647,541.091 728.647,536.424 737.5,534.5C 738.568,535.434 739.901,535.768 741.5,535.5C 740.865,532.507 740.699,529.507 741,526.5C 741.75,527.126 742.584,527.626 743.5,528C 743.108,530.354 743.108,532.854 743.5,535.5C 745.621,535.675 747.621,535.341 749.5,534.5C 751.655,534.372 753.655,534.872 755.5,536C 772.672,547.844 776.838,563.344 768,582.5C 757.073,595.085 743.906,598.251 728.5,592C 717.619,584.083 712.452,573.25 713,559.5C 712.5,559 712,558.5 711.5,558C 692.647,547.8 673.813,537.633 655,527.5C 654.959,523.977 656.293,520.977 659,518.5C 677.247,528.373 695.414,538.373 713.5,548.5C 713.787,547.8 714.12,547.133 714.5,546.5 Z M 740.5,548.5 C 738.981,549.41 737.315,550.243 735.5,551C 726.698,561.171 727.698,570.171 738.5,578C 751.401,580.045 757.235,574.545 756,561.5C 753.998,553.327 748.832,548.994 740.5,548.5 Z"/></g>
<g><path style="opacity:0.602" fill="#040c12" d="M 737.5,546.5 C 750.125,546.286 757.458,552.453 759.5,565C 757.524,577.658 750.19,582.991 737.5,581C 727.604,574.956 724.771,566.456 729,555.5C 731.334,552 734.168,549 737.5,546.5 Z M 740.5,548.5 C 738.981,549.41 737.315,550.243 735.5,551C 726.698,561.171 727.698,570.171 738.5,578C 751.401,580.045 757.235,574.545 756,561.5C 753.998,553.327 748.832,548.994 740.5,548.5 Z"/></g>
<g><path style="opacity:0.4" fill="#020d13" d="M 384.5,461.5 C 392.394,495.954 407.727,526.621 430.5,553.5C 448.829,571.693 469.162,587.526 491.5,601C 498.196,602.849 504.53,605.516 510.5,609C 512.713,609.626 514.88,609.459 517,608.5C 555.834,592.81 587,567.81 610.5,533.5C 611.362,534.39 611.862,535.39 612,536.5C 600.714,552.285 587.547,566.285 572.5,578.5C 556.058,592.422 537.725,603.256 517.5,611C 513.188,611.774 509.022,611.274 505,609.5C 500.749,607.082 496.249,605.249 491.5,604C 487.5,601.667 483.5,599.333 479.5,597C 428.617,566.121 396.117,521.621 382,463.5C 381.333,461.5 381.333,459.5 382,457.5C 382.2,459.32 383.034,460.653 384.5,461.5 Z"/></g>
<g><path style="opacity:1" fill="#132229" d="M 278.5,459.5 C 282.154,459.942 285.821,460.276 289.5,460.5C 288.178,484.768 288.178,509.101 289.5,533.5C 297.703,536.112 304.369,540.945 309.5,548C 311.913,548.484 314.246,548.15 316.5,547C 333.945,536.946 351.612,527.446 369.5,518.5C 369.724,520.787 370.391,522.953 371.5,525C 370.523,527.761 368.523,529.094 365.5,529C 349.067,539.971 331.9,549.804 314,558.5C 314.455,573.431 308.288,584.598 295.5,592C 281.488,597.672 269.655,594.839 260,583.5C 247.146,559.939 253.146,542.939 278,532.5C 278.5,508.169 278.667,483.836 278.5,459.5 Z M 280.5,548.5 C 267.869,555.622 266.202,564.788 275.5,576C 280.99,579.453 286.323,579.287 291.5,575.5C 294.219,571.754 295.886,567.588 296.5,563C 294.778,554.109 289.445,549.275 280.5,548.5 Z"/></g>
<g><path style="opacity:1" fill="#16262c" d="M 342.5,585.5 C 342.5,584.5 342.5,583.5 342.5,582.5C 343.15,582.804 343.817,583.137 344.5,583.5C 346.656,576.34 351.322,572.007 358.5,570.5C 366.25,571.083 370.583,575.249 371.5,583C 368.905,596.298 361.572,599.964 349.5,594C 346.819,591.806 345.319,588.973 345,585.5C 344.23,584.402 343.397,584.402 342.5,585.5 Z"/></g>
<g><path style="opacity:0.839" fill="#02080d" d="M 278.5,546.5 C 292.141,546.309 298.975,552.976 299,566.5C 294.887,579.972 286.387,583.805 273.5,578C 266.983,570.675 265.816,562.508 270,553.5C 272.441,550.546 275.275,548.213 278.5,546.5 Z M 280.5,548.5 C 267.869,555.622 266.202,564.788 275.5,576C 280.99,579.453 286.323,579.287 291.5,575.5C 294.219,571.754 295.886,567.588 296.5,563C 294.778,554.109 289.445,549.275 280.5,548.5 Z"/></g>
<g><path style="opacity:0.431" fill="#000306" d="M 565.5,607.5 C 575.83,600.327 585.83,592.66 595.5,584.5C 622.644,560.669 642.31,531.669 654.5,497.5C 655.167,498.167 655.833,498.833 656.5,499.5C 647.874,523.573 635.374,545.239 619,564.5C 591.539,594.635 559.039,617.468 521.5,633C 517.221,634.244 512.888,634.577 508.5,634C 490.093,627.933 472.759,619.599 456.5,609C 413.245,579.729 383.078,540.229 366,490.5C 363.05,479.075 360.216,467.742 357.5,456.5C 358.75,456.423 359.583,455.756 360,454.5C 362.449,465.847 365.116,477.181 368,488.5C 391.639,556.809 437.139,604.309 504.5,631C 507.167,631.167 509.833,631.333 512.5,631.5C 531.779,627.261 549.446,619.261 565.5,607.5 Z"/></g>
<g><path style="opacity:0.667" fill="#0c323f" d="M 566.5,517.5 C 575.839,517.334 585.173,517.5 594.5,518C 597.113,521.464 597.113,524.964 594.5,528.5C 583.849,529.666 573.182,529.832 562.5,529C 559.032,523.34 560.365,519.506 566.5,517.5 Z"/></g>
<g><path style="opacity:1" fill="#183541" d="M 439.5,516.5 C 447.84,516.334 456.173,516.5 464.5,517C 468.883,519.918 469.55,523.585 466.5,528C 454.535,529.869 442.535,529.869 430.5,528C 427.657,524.381 427.99,521.048 431.5,518C 434.365,517.817 437.031,517.317 439.5,516.5 Z"/></g>
<g><path style="opacity:0.287" fill="#01070c" d="M 664.5,568.5 C 680.544,569.928 686.044,578.262 681,593.5C 671.968,602.765 662.968,602.765 654,593.5C 649.878,584.868 651.378,577.368 658.5,571C 660.611,570.155 662.611,569.322 664.5,568.5 Z"/></g>
<g><path style="opacity:1" fill="#16242c" d="M 661.5,571.5 C 675.208,570.043 681.375,576.043 680,589.5C 677.499,595.34 672.999,598.007 666.5,597.5C 656.253,596.324 652.419,590.657 655,580.5C 655.471,578.754 656.138,577.087 657,575.5C 658.992,574.672 660.492,573.339 661.5,571.5 Z"/></g>
<g><path style="opacity:0.42" fill="#01060b" d="M 342.5,585.5 C 343.397,584.402 344.23,584.402 345,585.5C 345.319,588.973 346.819,591.806 349.5,594C 361.572,599.964 368.905,596.298 371.5,583C 370.583,575.249 366.25,571.083 358.5,570.5C 351.322,572.007 346.656,576.34 344.5,583.5C 343.817,583.137 343.15,582.804 342.5,582.5C 347.654,567.891 356.987,564.558 370.5,572.5C 375.013,580.864 374.346,588.697 368.5,596C 360.98,600.567 353.646,600.234 346.5,595C 344.861,591.902 343.527,588.736 342.5,585.5 Z"/></g>
<g><path style="opacity:1" fill="#061218" d="M 323.5,613.5 C 331.11,611.782 334.777,614.782 334.5,622.5C 334.712,625.011 334.045,627.178 332.5,629C 324.024,631.166 319.524,627.999 319,619.5C 320.752,617.649 322.252,615.649 323.5,613.5 Z"/></g>
<g><path style="opacity:0.414" fill="#030b0f" d="M 697.5,612.5 C 707.974,611.754 711.474,616.421 708,626.5C 702.867,630.538 697.867,630.205 693,625.5C 692.333,622.833 692.333,620.167 693,617.5C 694.707,615.963 696.207,614.296 697.5,612.5 Z"/></g>
<g><path style="opacity:0.206" fill="#02090f" d="M 423.5,590.5 C 427.935,591.767 430.935,594.6 432.5,599C 424.222,611.707 415.555,624.207 406.5,636.5C 411.892,644.173 415.225,652.673 416.5,662C 415.184,668.755 413.017,675.255 410,681.5C 406.5,683.667 403.667,686.5 401.5,690C 388.708,696.231 376.041,695.898 363.5,689C 362,686.167 359.833,684 357,682.5C 346.857,664.654 349.357,648.82 364.5,635C 370.44,631.242 376.94,629.075 384,628.5C 387.168,628.543 390.168,629.209 393,630.5C 398.678,623.128 404.345,615.795 410,608.5C 410.561,606.275 411.561,604.275 413,602.5C 416.743,598.656 420.243,594.656 423.5,590.5 Z M 370.5,666.5 C 370.5,665.5 370.5,664.5 370.5,663.5C 369.833,654.327 374,648.661 383,646.5C 386.808,647.868 390.475,649.534 394,651.5C 397.277,658.139 397.277,664.806 394,671.5C 387.899,676.25 381.399,676.75 374.5,673C 373.281,670.722 371.948,668.555 370.5,666.5 Z"/></g>
<g><path style="opacity:1" fill="#14242b" d="M 423.5,594.5 C 427.803,594.963 429.636,597.296 429,601.5C 419.75,613.013 411.25,625.013 403.5,637.5C 414.706,650.414 416.206,664.414 408,679.5C 396.444,693.211 382.611,696.045 366.5,688C 349.292,671.049 349.292,654.049 366.5,637C 370.464,635.127 374.464,633.46 378.5,632C 384.056,631.244 389.39,631.577 394.5,633C 403.999,620.007 413.665,607.173 423.5,594.5 Z M 370.5,666.5 C 370.5,665.5 370.5,664.5 370.5,663.5C 369.833,654.327 374,648.661 383,646.5C 386.808,647.868 390.475,649.534 394,651.5C 397.277,658.139 397.277,664.806 394,671.5C 387.899,676.25 381.399,676.75 374.5,673C 373.281,670.722 371.948,668.555 370.5,666.5 Z"/></g>
<g><path style="opacity:0.547" fill="#050f16" d="M 370.5,666.5 C 371.948,668.555 373.281,670.722 374.5,673C 381.399,676.75 387.899,676.25 394,671.5C 397.277,664.806 397.277,658.139 394,651.5C 390.475,649.534 386.808,647.868 383,646.5C 374,648.661 369.833,654.327 370.5,663.5C 369.71,662.391 369.21,661.058 369,659.5C 368.667,660.833 368.333,662.167 368,663.5C 366.887,652.388 371.887,646.388 383,645.5C 393.083,645.415 398.583,650.415 399.5,660.5C 397.682,677.471 389.016,682.304 373.5,675C 371.337,673.002 369.67,670.668 368.5,668C 368.836,666.97 369.503,666.47 370.5,666.5 Z"/></g>
<g><path style="opacity:0.292" fill="#01050a" d="M 449.5,642.5 C 464.635,641.42 471.135,648.42 469,663.5C 464.767,674.721 457.267,677.555 446.5,672C 441.082,667.829 438.582,662.329 439,655.5C 440.651,652.198 442.318,648.864 444,645.5C 446.058,644.771 447.891,643.771 449.5,642.5 Z"/></g>
<g><path style="opacity:1" fill="#16242b" d="M 451.5,644.5 C 463.405,644.624 468.571,650.624 467,662.5C 461.228,674.185 453.561,675.518 444,666.5C 439.778,656.671 442.278,649.338 451.5,644.5 Z"/></g>
<g><path style="opacity:0.281" fill="#000307" d="M 567.5,642.5 C 583.513,642.017 590.013,649.684 587,665.5C 581.395,674.437 573.562,676.937 563.5,673C 561.632,670.172 559.466,667.672 557,665.5C 554.624,654.93 558.124,647.263 567.5,642.5 Z"/></g>
<g><path style="opacity:1" fill="#142127" d="M 569.5,644.5 C 582.729,645.612 587.563,652.612 584,665.5C 578.515,672.811 571.682,674.311 563.5,670C 555.529,659.091 557.529,650.591 569.5,644.5 Z"/></g>
<g><path style="opacity:0.493" fill="#01060c" d="M 599.5,590.5 C 603.27,591.736 606.437,594.069 609,597.5C 616.507,608.658 624.34,619.491 632.5,630C 649.271,626.905 662.438,632.405 672,646.5C 679.293,664.062 675.46,678.562 660.5,690C 647.784,696.23 635.45,695.564 623.5,688C 610.852,675.541 608.019,661.041 615,644.5C 616.892,642.946 618.392,641.112 619.5,639C 611.638,626.34 603.138,614.173 594,602.5C 593.333,600.833 593.333,599.167 594,597.5C 595.666,595.004 597.5,592.671 599.5,590.5 Z M 641.5,646.5 C 650.373,647.873 655.373,653.04 656.5,662C 654.515,673.663 647.848,677.663 636.5,674C 629.269,668.548 627.602,661.715 631.5,653.5C 634.584,650.64 637.918,648.307 641.5,646.5 Z"/></g>
<g><path style="opacity:1" fill="#12222a" d="M 600.5,593.5 C 603.418,595.283 605.918,597.617 608,600.5C 615.446,611.613 623.279,622.446 631.5,633C 655.39,628.777 669.39,638.61 673.5,662.5C 670.503,682.667 658.836,692.5 638.5,692C 622.796,687.628 614.463,677.294 613.5,661C 612.92,653.492 615.42,647.325 621,642.5C 621.781,641.271 622.281,639.938 622.5,638.5C 613.882,625.444 604.882,612.611 595.5,600C 596.999,597.672 598.666,595.505 600.5,593.5 Z M 641.5,646.5 C 637.918,648.307 634.584,650.64 631.5,653.5C 627.602,661.715 629.269,668.548 636.5,674C 647.848,677.663 654.515,673.663 656.5,662C 655.373,653.04 650.373,647.873 641.5,646.5 Z"/></g>
<g><path style="opacity:0.569" fill="#020b13" d="M 639.5,644.5 C 648.439,644.279 654.605,648.279 658,656.5C 659.92,663.981 658.087,670.314 652.5,675.5C 638.535,680.849 629.868,676.182 626.5,661.5C 627.455,653.216 631.788,647.55 639.5,644.5 Z M 641.5,646.5 C 637.918,648.307 634.584,650.64 631.5,653.5C 627.602,661.715 629.269,668.548 636.5,674C 647.848,677.663 654.515,673.663 656.5,662C 655.373,653.04 650.373,647.873 641.5,646.5 Z"/></g>
<g><path style="opacity:1" fill="#0e222a" d="M 553.5,758.5 C 553.552,760.903 553.219,763.236 552.5,765.5C 551.732,764.737 551.232,763.737 551,762.5C 549.477,764.569 548.643,766.903 548.5,769.5C 546.799,769.034 545.299,769.034 544,769.5C 543.5,768.5 543,767.5 542.5,766.5C 543.795,760.038 545.295,753.371 547,746.5C 547.5,740.175 547.666,733.842 547.5,727.5C 543.287,727.943 539.954,729.943 537.5,733.5C 537.624,734.107 537.957,734.44 538.5,734.5C 538.5,735.167 538.167,735.5 537.5,735.5C 533.56,737.278 530.727,740.278 529,744.5C 527.448,745.966 525.614,746.966 523.5,747.5C 520.267,753.362 515.933,754.695 510.5,751.5C 514.34,753.082 517.34,752.082 519.5,748.5C 521.934,745.562 524.601,742.729 527.5,740C 524.183,739.502 520.85,739.335 517.5,739.5C 512.1,738.813 506.6,738.146 501,737.5C 500.667,737.833 500.333,738.167 500,738.5C 496.849,735.484 493.349,734.651 489.5,736C 492.333,739.167 495.167,742.333 498,745.5C 498.333,744.833 498.667,744.167 499,743.5C 500.129,745.141 501.629,746.141 503.5,746.5C 505.54,748.177 507.54,749.844 509.5,751.5C 505.758,750.131 502.091,748.464 498.5,746.5C 497.702,746.957 497.369,747.624 497.5,748.5C 493.223,743.885 488.89,739.219 484.5,734.5C 486.49,734.007 486.49,732.84 484.5,731C 488.106,729.234 491.606,728.067 495,727.5C 498.681,730.36 502.848,731.193 507.5,730C 507.468,724.728 507.801,719.395 508.5,714C 508.333,712.5 508.167,711 508,709.5C 507.439,708.978 506.772,708.645 506,708.5C 500.842,713.08 494.842,715.746 488,716.5C 487.667,715.833 487.333,715.167 487,714.5C 485.644,715.38 484.144,715.714 482.5,715.5C 482.33,714.178 482.663,713.011 483.5,712C 491.548,708.055 499.715,704.555 508,701.5C 508.333,681.833 508.667,662.167 509,642.5C 511.401,641.398 513.901,641.231 516.5,642C 517.569,661.447 517.736,680.947 517,700.5C 528.428,706.919 540.095,712.919 552,718.5C 553.979,732.897 553.979,747.231 552,761.5C 552.232,760.263 552.732,759.263 553.5,758.5 Z M 518.5,713.5 C 522.6,715.479 526.934,716.979 531.5,718C 533.305,718.972 534.972,720.139 536.5,721.5C 530.936,724.724 524.936,726.391 518.5,726.5C 518.5,722.167 518.5,717.833 518.5,713.5 Z"/></g>
<g><path style="opacity:1" fill="#111a1e" d="M 583.5,702.5 C 585.484,702.383 587.15,703.05 588.5,704.5C 592.578,708.256 592.911,712.09 589.5,716C 584.624,716.355 580.624,718.355 577.5,722C 574.507,722.75 572.673,721.583 572,718.5C 571.333,715.5 571.333,712.5 572,709.5C 576.221,707.774 580.054,705.441 583.5,702.5 Z"/></g>
<g><path style="opacity:1" fill="#0e191f" d="M 446.5,702.5 C 457.283,705.779 459.116,711.779 452,720.5C 446.216,721.436 442.382,718.936 440.5,713C 440.862,708.429 442.862,704.929 446.5,702.5 Z"/></g>
<g><path style="opacity:1" fill="#061118" d="M 553.5,758.5 C 552.732,759.263 552.232,760.263 552,761.5C 553.979,747.231 553.979,732.897 552,718.5C 540.095,712.919 528.428,706.919 517,700.5C 517.736,680.947 517.569,661.447 516.5,642C 513.901,641.231 511.401,641.398 509,642.5C 508.667,662.167 508.333,681.833 508,701.5C 499.715,704.555 491.548,708.055 483.5,712C 482.663,713.011 482.33,714.178 482.5,715.5C 484.144,715.714 485.644,715.38 487,714.5C 487.333,715.167 487.667,715.833 488,716.5C 494.842,715.746 500.842,713.08 506,708.5C 506.772,708.645 507.439,708.978 508,709.5C 508.167,711 508.333,712.5 508.5,714C 507.801,719.395 507.468,724.728 507.5,730C 502.848,731.193 498.681,730.36 495,727.5C 491.606,728.067 488.106,729.234 484.5,731C 486.49,732.84 486.49,734.007 484.5,734.5C 483.518,733.859 482.518,733.193 481.5,732.5C 480.637,734.771 480.637,737.105 481.5,739.5C 480.698,740.952 480.198,742.618 480,744.5C 478.769,739.176 477.602,733.843 476.5,728.5C 475.455,726.599 474.122,724.933 472.5,723.5C 471.668,731.479 471.168,739.479 471,747.5C 470.802,745.618 470.302,743.952 469.5,742.5C 469.334,734.493 469.5,726.493 470,718.5C 470.249,717.376 470.749,716.376 471.5,715.5C 482.682,709.493 494.182,704.159 506,699.5C 506.5,679.836 506.667,660.169 506.5,640.5C 509.156,639.842 511.822,639.175 514.5,638.5C 516.66,638.766 518.326,639.766 519.5,641.5C 518.424,660.755 518.424,680.088 519.5,699.5C 531.148,704.882 542.648,710.548 554,716.5C 554.999,724.816 555.832,733.149 556.5,741.5C 556.224,747.434 555.224,753.1 553.5,758.5 Z M 518.5,713.5 C 518.5,717.833 518.5,722.167 518.5,726.5C 524.936,726.391 530.936,724.724 536.5,721.5C 534.972,720.139 533.305,718.972 531.5,718C 526.934,716.979 522.6,715.479 518.5,713.5 Z M 504.5,712.5 C 505.239,712.369 505.906,712.536 506.5,713C 505.529,718.072 505.195,723.238 505.5,728.5C 499.193,726.83 493.193,724.163 487.5,720.5C 493.321,718.223 498.987,715.556 504.5,712.5 Z"/></g>
<g><path style="opacity:1" fill="#13262e" d="M 481.5,739.5 C 481.788,742.939 482.454,746.272 483.5,749.5C 482.069,749.119 481.236,748.119 481,746.5C 480.774,750.552 481.274,754.552 482.5,758.5C 481.731,762.48 481.564,766.48 482,770.5C 480.644,771.38 479.144,771.714 477.5,771.5C 476.448,765.01 474.781,758.677 472.5,752.5C 471.824,753.602 471.158,754.602 470.5,755.5C 469.705,751.215 469.372,746.881 469.5,742.5C 470.302,743.952 470.802,745.618 471,747.5C 471.168,739.479 471.668,731.479 472.5,723.5C 474.122,724.933 475.455,726.599 476.5,728.5C 477.602,733.843 478.769,739.176 480,744.5C 480.198,742.618 480.698,740.952 481.5,739.5 Z"/></g>
<g><path style="opacity:0.999" fill="#1f4754" d="M 517.5,739.5 C 514.167,739.5 510.833,739.5 507.5,739.5C 502.798,739.904 501.465,742.237 503.5,746.5C 501.629,746.141 500.129,745.141 499,743.5C 498.667,744.167 498.333,744.833 498,745.5C 495.167,742.333 492.333,739.167 489.5,736C 493.349,734.651 496.849,735.484 500,738.5C 500.333,738.167 500.667,737.833 501,737.5C 506.6,738.146 512.1,738.813 517.5,739.5 Z"/></g>
<g><path style="opacity:1" fill="#1ebad5" d="M 507.5,739.5 C 506.859,740.482 506.193,741.482 505.5,742.5C 507.291,744.46 509.457,745.793 512,746.5C 512.667,745.833 513.333,745.167 514,744.5C 516.311,745.397 518.144,746.73 519.5,748.5C 517.34,752.082 514.34,753.082 510.5,751.5C 510.167,751.5 509.833,751.5 509.5,751.5C 507.54,749.844 505.54,748.177 503.5,746.5C 501.465,742.237 502.798,739.904 507.5,739.5 Z"/></g>
<g><path style="opacity:0.999" fill="#7eccdc" d="M 507.5,739.5 C 510.833,739.5 514.167,739.5 517.5,739.5C 520.85,739.335 524.183,739.502 527.5,740C 524.601,742.729 521.934,745.562 519.5,748.5C 518.144,746.73 516.311,745.397 514,744.5C 513.333,745.167 512.667,745.833 512,746.5C 509.457,745.793 507.291,744.46 505.5,742.5C 506.193,741.482 506.859,740.482 507.5,739.5 Z"/></g>
<g><path style="opacity:1" fill="#09151b" d="M 552.5,765.5 C 550.366,769.767 548.2,774.101 546,778.5C 540.549,783.777 534.216,787.777 527,790.5C 517.173,799.764 507.34,799.764 497.5,790.5C 489.974,788.491 483.474,784.825 478,779.5C 475.681,771.361 473.181,763.361 470.5,755.5C 471.158,754.602 471.824,753.602 472.5,752.5C 474.781,758.677 476.448,765.01 477.5,771.5C 479.144,771.714 480.644,771.38 482,770.5C 481.564,766.48 481.731,762.48 482.5,758.5C 481.274,754.552 480.774,750.552 481,746.5C 481.236,748.119 482.069,749.119 483.5,749.5C 483.792,755.736 484.959,761.736 487,767.5C 491.624,764.438 496.457,761.772 501.5,759.5C 502.428,758.232 502.595,756.899 502,755.5C 500.489,753.138 498.989,750.805 497.5,748.5C 497.369,747.624 497.702,746.957 498.5,746.5C 502.091,748.464 505.758,750.131 509.5,751.5C 509.833,751.5 510.167,751.5 510.5,751.5C 515.933,754.695 520.267,753.362 523.5,747.5C 525.614,746.966 527.448,745.966 529,744.5C 530.727,740.278 533.56,737.278 537.5,735.5C 533.715,742.892 529.049,749.726 523.5,756C 527.5,759 531.5,762 535.5,765C 536.5,765.667 537.5,765.667 538.5,765C 544.028,754.219 545.862,742.719 544,730.5C 542.008,731.665 540.175,732.998 538.5,734.5C 537.957,734.44 537.624,734.107 537.5,733.5C 539.954,729.943 543.287,727.943 547.5,727.5C 547.666,733.842 547.5,740.175 547,746.5C 545.295,753.371 543.795,760.038 542.5,766.5C 543,767.5 543.5,768.5 544,769.5C 545.299,769.034 546.799,769.034 548.5,769.5C 548.643,766.903 549.477,764.569 551,762.5C 551.232,763.737 551.732,764.737 552.5,765.5 Z M 517.5,768.5 C 522.357,770.098 526.357,772.931 529.5,777C 525.455,778.773 521.622,780.94 518,783.5C 517.501,778.511 517.334,773.511 517.5,768.5 Z M 506.5,776.5 C 506.664,779.187 506.497,781.854 506,784.5C 502.379,781.456 498.545,779.123 494.5,777.5C 498.026,774.297 502.026,771.964 506.5,770.5C 506.5,772.5 506.5,774.5 506.5,776.5 Z"/></g>
<g><path style="opacity:1" fill="#11242c" d="M 494.5,777.5 C 498.545,779.123 502.379,781.456 506,784.5C 506.497,781.854 506.664,779.187 506.5,776.5C 507.153,780.093 507.986,783.759 509,787.5C 508.781,782.515 508.781,777.515 509,772.5C 510,771.833 511,771.167 512,770.5C 513.011,771.337 514.178,771.67 515.5,771.5C 514.997,776.172 514.831,780.839 515,785.5C 515.689,786.357 516.522,787.023 517.5,787.5C 522.674,783.831 528.174,780.831 534,778.5C 535.011,779.337 536.178,779.67 537.5,779.5C 537.649,780.552 537.483,781.552 537,782.5C 530.45,786.194 523.95,790.027 517.5,794C 514.167,794.667 510.833,794.667 507.5,794C 500.412,789.929 493.078,786.262 485.5,783C 481.507,779.465 482.174,778.632 487.5,780.5C 488.02,775.97 489.186,775.637 491,779.5C 491.816,778.177 492.983,777.511 494.5,777.5 Z"/></g>
</svg>
